<mxfile host="app.diagrams.net" modified="2023-08-20T19:59:24.641Z" agent="Mozilla/5.0 (Windows NT 10.0; Win64; x64) AppleWebKit/537.36 (KHTML, like Gecko) Chrome/115.0.0.0 Safari/537.36" etag="3_d_qGjcShnMNG6oJAaG" version="21.6.8" type="github">
  <diagram name="PÃ¡gina-1" id="BYGqut1vgri4-7DsjM6v">
    <mxGraphModel dx="1222" dy="601" grid="1" gridSize="10" guides="1" tooltips="1" connect="1" arrows="1" fold="1" page="1" pageScale="1" pageWidth="980" pageHeight="1390" background="#D4E1F5" math="0" shadow="1">
      <root>
        <mxCell id="0" />
        <mxCell id="1" parent="0" />
        <mxCell id="ZVzlG-HeOU7Pa4IfHeLb-1" value="Class&amp;nbsp;Carro" style="swimlane;fontStyle=1;align=center;verticalAlign=top;childLayout=stackLayout;horizontal=1;startSize=26;horizontalStack=0;resizeParent=1;resizeParentMax=0;resizeLast=0;collapsible=1;marginBottom=0;whiteSpace=wrap;html=1;rounded=1;" vertex="1" parent="1">
          <mxGeometry x="100" y="80" width="230" height="216" as="geometry" />
        </mxCell>
        <mxCell id="ZVzlG-HeOU7Pa4IfHeLb-2" value="-&amp;nbsp;&amp;nbsp;placa :&amp;nbsp;&amp;nbsp;String;" style="text;strokeColor=none;fillColor=none;align=left;verticalAlign=top;spacingLeft=4;spacingRight=4;overflow=hidden;rotatable=0;points=[[0,0.5],[1,0.5]];portConstraint=eastwest;whiteSpace=wrap;html=1;" vertex="1" parent="ZVzlG-HeOU7Pa4IfHeLb-1">
          <mxGeometry y="26" width="230" height="26" as="geometry" />
        </mxCell>
        <mxCell id="ZVzlG-HeOU7Pa4IfHeLb-6" value="-&amp;nbsp;&amp;nbsp;marca:&amp;nbsp;&amp;nbsp;String;" style="text;strokeColor=none;fillColor=none;align=left;verticalAlign=top;spacingLeft=4;spacingRight=4;overflow=hidden;rotatable=0;points=[[0,0.5],[1,0.5]];portConstraint=eastwest;whiteSpace=wrap;html=1;" vertex="1" parent="ZVzlG-HeOU7Pa4IfHeLb-1">
          <mxGeometry y="52" width="230" height="26" as="geometry" />
        </mxCell>
        <mxCell id="ZVzlG-HeOU7Pa4IfHeLb-5" value="- modelo:String;" style="text;strokeColor=none;fillColor=none;align=left;verticalAlign=top;spacingLeft=4;spacingRight=4;overflow=hidden;rotatable=0;points=[[0,0.5],[1,0.5]];portConstraint=eastwest;whiteSpace=wrap;html=1;" vertex="1" parent="ZVzlG-HeOU7Pa4IfHeLb-1">
          <mxGeometry y="78" width="230" height="26" as="geometry" />
        </mxCell>
        <mxCell id="ZVzlG-HeOU7Pa4IfHeLb-3" value="" style="line;strokeWidth=1;fillColor=none;align=left;verticalAlign=middle;spacingTop=-1;spacingLeft=3;spacingRight=3;rotatable=0;labelPosition=right;points=[];portConstraint=eastwest;strokeColor=inherit;" vertex="1" parent="ZVzlG-HeOU7Pa4IfHeLb-1">
          <mxGeometry y="104" width="230" height="8" as="geometry" />
        </mxCell>
        <mxCell id="ZVzlG-HeOU7Pa4IfHeLb-4" value="+ Carro (placa, marca,modelo); String;&amp;nbsp;" style="text;strokeColor=none;fillColor=none;align=left;verticalAlign=top;spacingLeft=4;spacingRight=4;overflow=hidden;rotatable=0;points=[[0,0.5],[1,0.5]];portConstraint=eastwest;whiteSpace=wrap;html=1;" vertex="1" parent="ZVzlG-HeOU7Pa4IfHeLb-1">
          <mxGeometry y="112" width="230" height="26" as="geometry" />
        </mxCell>
        <mxCell id="ZVzlG-HeOU7Pa4IfHeLb-9" value="+&amp;nbsp;getPlaca():String;" style="text;strokeColor=none;fillColor=none;align=left;verticalAlign=top;spacingLeft=4;spacingRight=4;overflow=hidden;rotatable=0;points=[[0,0.5],[1,0.5]];portConstraint=eastwest;whiteSpace=wrap;html=1;" vertex="1" parent="ZVzlG-HeOU7Pa4IfHeLb-1">
          <mxGeometry y="138" width="230" height="26" as="geometry" />
        </mxCell>
        <mxCell id="ZVzlG-HeOU7Pa4IfHeLb-8" value="+&amp;nbsp;getMarca() : String ;&amp;nbsp;" style="text;strokeColor=none;fillColor=none;align=left;verticalAlign=top;spacingLeft=4;spacingRight=4;overflow=hidden;rotatable=0;points=[[0,0.5],[1,0.5]];portConstraint=eastwest;whiteSpace=wrap;html=1;" vertex="1" parent="ZVzlG-HeOU7Pa4IfHeLb-1">
          <mxGeometry y="164" width="230" height="26" as="geometry" />
        </mxCell>
        <mxCell id="ZVzlG-HeOU7Pa4IfHeLb-11" value="+ getModelo:()String ;" style="text;strokeColor=none;fillColor=none;align=left;verticalAlign=top;spacingLeft=4;spacingRight=4;overflow=hidden;rotatable=0;points=[[0,0.5],[1,0.5]];portConstraint=eastwest;whiteSpace=wrap;html=1;" vertex="1" parent="ZVzlG-HeOU7Pa4IfHeLb-1">
          <mxGeometry y="190" width="230" height="26" as="geometry" />
        </mxCell>
        <mxCell id="ZVzlG-HeOU7Pa4IfHeLb-10" value="1...* .......1" style="text;html=1;align=center;verticalAlign=middle;resizable=0;points=[];autosize=1;strokeColor=none;fillColor=none;" vertex="1" parent="1">
          <mxGeometry x="380" y="90" width="80" height="30" as="geometry" />
        </mxCell>
        <mxCell id="ZVzlG-HeOU7Pa4IfHeLb-19" value="Class&amp;nbsp;&amp;nbsp;Parqueadero&amp;nbsp;" style="swimlane;fontStyle=1;align=center;verticalAlign=top;childLayout=stackLayout;horizontal=1;startSize=26;horizontalStack=0;resizeParent=1;resizeParentMax=0;resizeLast=0;collapsible=1;marginBottom=0;whiteSpace=wrap;html=1;rounded=1;" vertex="1" parent="1">
          <mxGeometry x="520" y="70" width="300" height="198" as="geometry" />
        </mxCell>
        <mxCell id="ZVzlG-HeOU7Pa4IfHeLb-20" value="-&amp;nbsp; &amp;nbsp;Carro[][] matrizParqueadero ;" style="text;strokeColor=none;fillColor=none;align=left;verticalAlign=top;spacingLeft=4;spacingRight=4;overflow=hidden;rotatable=0;points=[[0,0.5],[1,0.5]];portConstraint=eastwest;whiteSpace=wrap;html=1;" vertex="1" parent="ZVzlG-HeOU7Pa4IfHeLb-19">
          <mxGeometry y="26" width="300" height="26" as="geometry" />
        </mxCell>
        <mxCell id="ZVzlG-HeOU7Pa4IfHeLb-21" value="-&amp;nbsp; tarifaPorHora ; double;" style="text;strokeColor=none;fillColor=none;align=left;verticalAlign=top;spacingLeft=4;spacingRight=4;overflow=hidden;rotatable=0;points=[[0,0.5],[1,0.5]];portConstraint=eastwest;whiteSpace=wrap;html=1;" vertex="1" parent="ZVzlG-HeOU7Pa4IfHeLb-19">
          <mxGeometry y="52" width="300" height="26" as="geometry" />
        </mxCell>
        <mxCell id="ZVzlG-HeOU7Pa4IfHeLb-23" value="" style="line;strokeWidth=1;fillColor=none;align=left;verticalAlign=middle;spacingTop=-1;spacingLeft=3;spacingRight=3;rotatable=0;labelPosition=right;points=[];portConstraint=eastwest;strokeColor=inherit;" vertex="1" parent="ZVzlG-HeOU7Pa4IfHeLb-19">
          <mxGeometry y="78" width="300" height="8" as="geometry" />
        </mxCell>
        <mxCell id="ZVzlG-HeOU7Pa4IfHeLb-24" value="+&amp;nbsp;Parqueadero(filas,columnas, tarifaPorHora) ;" style="text;strokeColor=none;fillColor=none;align=left;verticalAlign=top;spacingLeft=4;spacingRight=4;overflow=hidden;rotatable=0;points=[[0,0.5],[1,0.5]];portConstraint=eastwest;whiteSpace=wrap;html=1;" vertex="1" parent="ZVzlG-HeOU7Pa4IfHeLb-19">
          <mxGeometry y="86" width="300" height="34" as="geometry" />
        </mxCell>
        <mxCell id="ZVzlG-HeOU7Pa4IfHeLb-25" value="+&amp;nbsp;parquearCarro(Carro carro, fila, columna)" style="text;strokeColor=none;fillColor=none;align=left;verticalAlign=top;spacingLeft=4;spacingRight=4;overflow=hidden;rotatable=0;points=[[0,0.5],[1,0.5]];portConstraint=eastwest;whiteSpace=wrap;html=1;" vertex="1" parent="ZVzlG-HeOU7Pa4IfHeLb-19">
          <mxGeometry y="120" width="300" height="26" as="geometry" />
        </mxCell>
        <mxCell id="ZVzlG-HeOU7Pa4IfHeLb-26" value="+&amp;nbsp;getMarca() : String ;&amp;nbsp;" style="text;strokeColor=none;fillColor=none;align=left;verticalAlign=top;spacingLeft=4;spacingRight=4;overflow=hidden;rotatable=0;points=[[0,0.5],[1,0.5]];portConstraint=eastwest;whiteSpace=wrap;html=1;" vertex="1" parent="ZVzlG-HeOU7Pa4IfHeLb-19">
          <mxGeometry y="146" width="300" height="26" as="geometry" />
        </mxCell>
        <mxCell id="ZVzlG-HeOU7Pa4IfHeLb-27" value="+ getModelo:()String ;" style="text;strokeColor=none;fillColor=none;align=left;verticalAlign=top;spacingLeft=4;spacingRight=4;overflow=hidden;rotatable=0;points=[[0,0.5],[1,0.5]];portConstraint=eastwest;whiteSpace=wrap;html=1;" vertex="1" parent="ZVzlG-HeOU7Pa4IfHeLb-19">
          <mxGeometry y="172" width="300" height="26" as="geometry" />
        </mxCell>
        <mxCell id="ZVzlG-HeOU7Pa4IfHeLb-28" value="" style="endArrow=diamondThin;endFill=1;endSize=24;html=1;rounded=0;entryX=-0.013;entryY=1.058;entryDx=0;entryDy=0;entryPerimeter=0;" edge="1" parent="1" source="ZVzlG-HeOU7Pa4IfHeLb-2" target="ZVzlG-HeOU7Pa4IfHeLb-20">
          <mxGeometry width="160" relative="1" as="geometry">
            <mxPoint x="329.99999999999994" y="136.75599999999997" as="sourcePoint" />
            <mxPoint x="576.44" y="132" as="targetPoint" />
          </mxGeometry>
        </mxCell>
      </root>
    </mxGraphModel>
  </diagram>
</mxfile>
